<svg width="278" height="39" viewBox="0 0 278 39" fill="none" xmlns="http://www.w3.org/2000/svg">
<path d="M26.312 4.016C26.184 5.424 26.088 6.784 26.024 8.096C25.992 9.408 25.976 10.416 25.976 11.12C25.976 11.76 25.992 12.368 26.024 12.944C26.056 13.52 26.088 14 26.12 14.384H25.016C24.696 12.048 24.2 10.208 23.528 8.864C22.856 7.488 21.976 6.528 20.888 5.984C19.832 5.408 18.584 5.12 17.144 5.12H15.176C14.248 5.12 13.544 5.2 13.064 5.36C12.584 5.52 12.264 5.84 12.104 6.32C11.944 6.8 11.864 7.536 11.864 8.528V33.488C11.864 34.48 11.944 35.216 12.104 35.696C12.264 36.176 12.584 36.496 13.064 36.656C13.544 36.816 14.248 36.896 15.176 36.896H17.528C18.968 36.896 20.232 36.592 21.32 35.984C22.44 35.344 23.384 34.272 24.152 32.768C24.952 31.264 25.56 29.232 25.976 26.672H27.08C26.984 27.696 26.936 29.04 26.936 30.704C26.936 31.44 26.952 32.48 26.984 33.824C27.016 35.168 27.112 36.56 27.272 38C25.64 37.936 23.8 37.904 21.752 37.904C19.704 37.872 17.88 37.856 16.28 37.856C15.48 37.856 14.456 37.856 13.208 37.856C11.96 37.856 10.616 37.872 9.176 37.904C7.736 37.904 6.28 37.92 4.808 37.952C3.336 37.952 1.944 37.968 0.632 38V37.04C1.656 36.976 2.424 36.848 2.936 36.656C3.448 36.464 3.784 36.08 3.944 35.504C4.136 34.928 4.232 34.064 4.232 32.912V9.104C4.232 7.92 4.136 7.056 3.944 6.512C3.784 5.936 3.432 5.552 2.888 5.36C2.376 5.136 1.624 5.008 0.632 4.976V4.016C1.944 4.048 3.336 4.08 4.808 4.112C6.28 4.112 7.736 4.128 9.176 4.16C10.616 4.16 11.96 4.16 13.208 4.16C14.456 4.16 15.48 4.16 16.28 4.16C17.752 4.16 19.416 4.16 21.272 4.16C23.16 4.128 24.84 4.08 26.312 4.016ZM18.824 20.432C18.824 20.432 18.824 20.592 18.824 20.912C18.824 21.232 18.824 21.392 18.824 21.392H10.424C10.424 21.392 10.424 21.232 10.424 20.912C10.424 20.592 10.424 20.432 10.424 20.432H18.824ZM20.216 14.096C20.088 15.92 20.024 17.312 20.024 18.272C20.056 19.232 20.072 20.112 20.072 20.912C20.072 21.712 20.088 22.592 20.12 23.552C20.152 24.512 20.232 25.904 20.36 27.728H19.256C19.096 26.608 18.792 25.568 18.344 24.608C17.928 23.648 17.32 22.88 16.52 22.304C15.72 21.696 14.68 21.392 13.4 21.392V20.432C14.36 20.432 15.176 20.24 15.848 19.856C16.52 19.44 17.064 18.912 17.48 18.272C17.928 17.6 18.28 16.896 18.536 16.16C18.792 15.424 18.984 14.736 19.112 14.096H20.216ZM54.0493 0.415998V32.72C54.0493 34.16 54.2733 35.232 54.7213 35.936C55.1693 36.608 55.9693 36.944 57.1213 36.944V37.952C56.1293 37.856 55.1373 37.808 54.1453 37.808C52.8013 37.808 51.5373 37.856 50.3533 37.952C49.2013 38.048 48.1293 38.224 47.1373 38.48V6.176C47.1373 4.736 46.9133 3.68 46.4653 3.008C46.0493 2.304 45.2493 1.952 44.0653 1.952V0.943999C45.0893 1.04 46.0813 1.088 47.0413 1.088C48.3533 1.088 49.6013 1.04 50.7853 0.943999C51.9693 0.815999 53.0573 0.639998 54.0493 0.415998ZM41.8093 12.512C43.2173 12.512 44.4493 12.752 45.5053 13.232C46.5933 13.68 47.4413 14.448 48.0493 15.536L47.4733 16.064C47.0573 15.296 46.4973 14.752 45.7933 14.432C45.1213 14.08 44.4013 13.904 43.6333 13.904C42.0013 13.904 40.7053 14.864 39.7453 16.784C38.7853 18.672 38.3213 21.6 38.3533 25.568C38.3533 28.288 38.5293 30.464 38.8813 32.096C39.2653 33.696 39.7933 34.848 40.4653 35.552C41.1693 36.256 41.9693 36.608 42.8653 36.608C43.9533 36.608 44.9293 36.176 45.7933 35.312C46.6573 34.448 47.1213 33.28 47.1853 31.808L47.4253 33.488C46.9453 35.184 46.1613 36.48 45.0733 37.376C44.0173 38.24 42.6253 38.672 40.8973 38.672C39.0093 38.672 37.3133 38.208 35.8093 37.28C34.3373 36.352 33.1853 34.928 32.3533 33.008C31.5213 31.056 31.1053 28.544 31.1053 25.472C31.1053 22.56 31.5693 20.16 32.4973 18.272C33.4253 16.352 34.6893 14.912 36.2893 13.952C37.9213 12.992 39.7613 12.512 41.8093 12.512ZM68.6248 12.512C69.9688 12.512 71.1368 12.688 72.1288 13.04C73.1528 13.36 73.8888 13.68 74.3368 14C75.4248 14.736 76.0968 14.256 76.3528 12.56H77.3608C77.2968 13.456 77.2488 14.56 77.2168 15.872C77.1848 17.152 77.1688 18.864 77.1688 21.008H76.1608C76.0008 19.824 75.6968 18.656 75.2488 17.504C74.8008 16.352 74.1448 15.408 73.2808 14.672C72.4488 13.936 71.3608 13.568 70.0168 13.568C69.0888 13.568 68.3048 13.84 67.6648 14.384C67.0248 14.896 66.7048 15.648 66.7048 16.64C66.7048 17.6 66.9928 18.448 67.5688 19.184C68.1448 19.888 68.8808 20.576 69.7768 21.248C70.7048 21.888 71.6648 22.576 72.6568 23.312C73.7128 24.112 74.6728 24.912 75.5368 25.712C76.4008 26.48 77.0888 27.328 77.6008 28.256C78.1128 29.184 78.3688 30.288 78.3688 31.568C78.3688 33.008 77.9528 34.272 77.1208 35.36C76.2888 36.416 75.1848 37.232 73.8088 37.808C72.4648 38.384 70.9608 38.672 69.2968 38.672C68.3368 38.672 67.4728 38.576 66.7048 38.384C65.9688 38.192 65.3288 37.952 64.7848 37.664C64.3688 37.472 63.9688 37.296 63.5848 37.136C63.2328 36.944 62.8968 36.784 62.5768 36.656C62.2568 36.56 61.9688 36.672 61.7128 36.992C61.4888 37.312 61.3128 37.76 61.1848 38.336H60.1768C60.2408 37.312 60.2888 36.064 60.3208 34.592C60.3528 33.12 60.3688 31.168 60.3688 28.736H61.3768C61.5688 30.464 61.9208 32 62.4328 33.344C62.9448 34.656 63.6328 35.696 64.4968 36.464C65.3928 37.2 66.5128 37.568 67.8568 37.568C68.4008 37.568 68.9288 37.456 69.4408 37.232C69.9528 37.008 70.3688 36.64 70.6888 36.128C71.0408 35.616 71.2168 34.96 71.2168 34.16C71.2168 32.752 70.7528 31.584 69.8248 30.656C68.9288 29.728 67.7768 28.72 66.3688 27.632C65.3448 26.8 64.3688 25.984 63.4408 25.184C62.5448 24.352 61.8088 23.456 61.2328 22.496C60.6568 21.504 60.3688 20.384 60.3688 19.136C60.3688 17.696 60.7528 16.48 61.5208 15.488C62.2888 14.496 63.2968 13.76 64.5448 13.28C65.8248 12.768 67.1848 12.512 68.6248 12.512ZM93.6766 12.512C96.0126 12.512 98.0606 12.944 99.8206 13.808C101.581 14.672 102.957 16.064 103.949 17.984C104.941 19.904 105.437 22.448 105.437 25.616C105.437 28.784 104.941 31.328 103.949 33.248C102.957 35.136 101.581 36.512 99.8206 37.376C98.0606 38.24 96.0126 38.672 93.6766 38.672C91.4046 38.672 89.3726 38.24 87.5806 37.376C85.8206 36.512 84.4286 35.136 83.4046 33.248C82.4126 31.328 81.9166 28.784 81.9166 25.616C81.9166 22.448 82.4126 19.904 83.4046 17.984C84.4286 16.064 85.8206 14.672 87.5806 13.808C89.3726 12.944 91.4046 12.512 93.6766 12.512ZM93.6766 13.472C92.3966 13.472 91.3246 14.432 90.4606 16.352C89.5966 18.24 89.1646 21.328 89.1646 25.616C89.1646 29.904 89.5966 32.992 90.4606 34.88C91.3246 36.768 92.3966 37.712 93.6766 37.712C94.9886 37.712 96.0606 36.768 96.8926 34.88C97.7566 32.992 98.1886 29.904 98.1886 25.616C98.1886 21.328 97.7566 18.24 96.8926 16.352C96.0606 14.432 94.9886 13.472 93.6766 13.472ZM126.289 12.512C127.633 12.512 128.721 12.688 129.553 13.04C130.417 13.36 131.089 13.808 131.569 14.384C132.081 14.992 132.449 15.776 132.673 16.736C132.929 17.696 133.057 18.992 133.057 20.624V33.536C133.057 34.88 133.281 35.792 133.729 36.272C134.209 36.752 135.009 36.992 136.129 36.992V38C135.521 37.968 134.609 37.936 133.393 37.904C132.177 37.84 130.977 37.808 129.793 37.808C128.577 37.808 127.377 37.84 126.193 37.904C125.041 37.936 124.161 37.968 123.553 38V36.992C124.513 36.992 125.185 36.752 125.569 36.272C125.953 35.792 126.145 34.88 126.145 33.536V18.608C126.145 17.808 126.065 17.12 125.905 16.544C125.745 15.936 125.457 15.472 125.041 15.152C124.625 14.8 124.001 14.624 123.169 14.624C122.305 14.624 121.505 14.864 120.769 15.344C120.065 15.824 119.489 16.496 119.041 17.36C118.625 18.192 118.417 19.136 118.417 20.192V33.536C118.417 34.88 118.609 35.792 118.993 36.272C119.409 36.752 120.081 36.992 121.009 36.992V38C120.433 37.968 119.585 37.936 118.465 37.904C117.377 37.84 116.241 37.808 115.057 37.808C113.841 37.808 112.593 37.84 111.313 37.904C110.033 37.936 109.073 37.968 108.433 38V36.992C109.553 36.992 110.337 36.752 110.785 36.272C111.265 35.792 111.505 34.88 111.505 33.536V18.416C111.505 16.976 111.281 15.92 110.833 15.248C110.417 14.544 109.617 14.192 108.433 14.192V13.184C109.457 13.28 110.449 13.328 111.409 13.328C112.753 13.328 114.001 13.28 115.153 13.184C116.337 13.056 117.425 12.88 118.417 12.656V16.976C119.217 15.344 120.305 14.192 121.681 13.52C123.057 12.848 124.593 12.512 126.289 12.512ZM181.233 4.016V4.976C180.209 5.104 179.441 5.376 178.929 5.792C178.417 6.176 178.065 6.8 177.873 7.664C177.713 8.528 177.633 9.744 177.633 11.312V38.096C177.249 38.064 176.849 38.048 176.433 38.048C176.049 38.048 175.633 38.064 175.185 38.096L154.353 11.696V30.128C154.353 31.888 154.449 33.248 154.641 34.208C154.833 35.136 155.249 35.808 155.889 36.224C156.561 36.608 157.601 36.88 159.009 37.04V38C158.401 37.936 157.601 37.904 156.609 37.904C155.617 37.872 154.689 37.856 153.825 37.856C153.089 37.856 152.337 37.872 151.569 37.904C150.801 37.904 150.161 37.936 149.649 38V37.04C150.673 36.88 151.441 36.608 151.953 36.224C152.465 35.84 152.801 35.216 152.961 34.352C153.153 33.456 153.249 32.24 153.249 30.704V9.104C153.249 7.92 153.153 7.056 152.961 6.512C152.801 5.936 152.449 5.552 151.905 5.36C151.393 5.136 150.641 5.008 149.649 4.976V4.016C150.161 4.048 150.801 4.08 151.569 4.112C152.337 4.144 153.089 4.16 153.825 4.16C154.593 4.16 155.329 4.144 156.033 4.112C156.737 4.08 157.377 4.048 157.953 4.016L176.529 26.912V11.888C176.529 10.128 176.433 8.784 176.241 7.856C176.049 6.896 175.617 6.208 174.945 5.792C174.305 5.376 173.281 5.104 171.873 4.976V4.016C172.481 4.048 173.281 4.08 174.273 4.112C175.265 4.144 176.193 4.16 177.057 4.16C177.825 4.16 178.577 4.144 179.313 4.112C180.081 4.08 180.721 4.048 181.233 4.016ZM189.401 38.336C187.961 38.336 186.761 38.064 185.801 37.52C184.841 36.976 184.137 36.256 183.689 35.36C183.241 34.432 183.017 33.424 183.017 32.336C183.017 30.96 183.321 29.84 183.929 28.976C184.569 28.112 185.385 27.408 186.377 26.864C187.369 26.32 188.409 25.872 189.497 25.52C190.617 25.168 191.673 24.832 192.665 24.512C193.689 24.16 194.505 23.76 195.113 23.312C195.753 22.832 196.073 22.224 196.073 21.488V17.744C196.073 16.912 195.929 16.176 195.641 15.536C195.385 14.864 194.969 14.352 194.393 14C193.849 13.648 193.129 13.472 192.233 13.472C191.593 13.472 190.953 13.568 190.313 13.76C189.673 13.92 189.145 14.208 188.729 14.624C189.625 14.944 190.313 15.44 190.793 16.112C191.305 16.752 191.561 17.488 191.561 18.32C191.561 19.408 191.177 20.272 190.409 20.912C189.673 21.552 188.793 21.872 187.769 21.872C186.617 21.872 185.737 21.52 185.129 20.816C184.553 20.08 184.265 19.2 184.265 18.176C184.265 17.248 184.489 16.48 184.937 15.872C185.417 15.264 186.073 14.688 186.905 14.144C187.801 13.632 188.873 13.232 190.121 12.944C191.401 12.656 192.777 12.512 194.249 12.512C195.721 12.512 197.049 12.672 198.233 12.992C199.417 13.28 200.409 13.824 201.209 14.624C201.945 15.36 202.425 16.272 202.649 17.36C202.873 18.416 202.985 19.76 202.985 21.392V34.448C202.985 35.248 203.065 35.808 203.225 36.128C203.385 36.416 203.657 36.56 204.041 36.56C204.329 36.56 204.601 36.48 204.857 36.32C205.145 36.16 205.449 35.968 205.769 35.744L206.249 36.56C205.577 37.136 204.793 37.584 203.897 37.904C203.033 38.192 202.057 38.336 200.969 38.336C199.785 38.336 198.841 38.176 198.137 37.856C197.433 37.504 196.921 37.04 196.601 36.464C196.313 35.888 196.169 35.216 196.169 34.448C195.401 35.664 194.473 36.624 193.385 37.328C192.297 38 190.969 38.336 189.401 38.336ZM192.809 35.264C193.449 35.264 194.025 35.12 194.537 34.832C195.081 34.512 195.593 34 196.073 33.296V23.456C195.785 23.936 195.385 24.368 194.873 24.752C194.361 25.136 193.817 25.536 193.241 25.952C192.665 26.336 192.105 26.768 191.561 27.248C191.049 27.728 190.633 28.32 190.313 29.024C189.993 29.728 189.833 30.576 189.833 31.568C189.833 32.816 190.105 33.744 190.649 34.352C191.193 34.96 191.913 35.264 192.809 35.264ZM217.365 5.312V13.184H223.029V14.144H217.365V33.536C217.365 34.496 217.541 35.184 217.893 35.6C218.245 35.984 218.773 36.176 219.477 36.176C220.053 36.176 220.629 35.968 221.205 35.552C221.781 35.104 222.293 34.352 222.741 33.296L223.557 33.728C223.045 35.168 222.261 36.352 221.205 37.28C220.181 38.208 218.773 38.672 216.981 38.672C215.925 38.672 214.997 38.528 214.197 38.24C213.397 37.984 212.725 37.584 212.181 37.04C211.477 36.336 211.013 35.472 210.789 34.448C210.565 33.392 210.453 32.032 210.453 30.368V14.144H206.421V13.184H210.453V6.848C211.797 6.848 213.029 6.736 214.149 6.512C215.301 6.256 216.373 5.856 217.365 5.312ZM231.12 38.336C229.68 38.336 228.48 38.064 227.52 37.52C226.56 36.976 225.856 36.256 225.408 35.36C224.96 34.432 224.736 33.424 224.736 32.336C224.736 30.96 225.04 29.84 225.648 28.976C226.288 28.112 227.104 27.408 228.096 26.864C229.088 26.32 230.128 25.872 231.216 25.52C232.336 25.168 233.392 24.832 234.384 24.512C235.408 24.16 236.224 23.76 236.832 23.312C237.472 22.832 237.792 22.224 237.792 21.488V17.744C237.792 16.912 237.648 16.176 237.36 15.536C237.104 14.864 236.688 14.352 236.112 14C235.568 13.648 234.848 13.472 233.952 13.472C233.312 13.472 232.672 13.568 232.032 13.76C231.392 13.92 230.864 14.208 230.448 14.624C231.344 14.944 232.032 15.44 232.512 16.112C233.024 16.752 233.28 17.488 233.28 18.32C233.28 19.408 232.896 20.272 232.128 20.912C231.392 21.552 230.512 21.872 229.488 21.872C228.336 21.872 227.456 21.52 226.848 20.816C226.272 20.08 225.984 19.2 225.984 18.176C225.984 17.248 226.208 16.48 226.656 15.872C227.136 15.264 227.792 14.688 228.624 14.144C229.52 13.632 230.592 13.232 231.84 12.944C233.12 12.656 234.496 12.512 235.968 12.512C237.44 12.512 238.768 12.672 239.952 12.992C241.136 13.28 242.128 13.824 242.928 14.624C243.664 15.36 244.144 16.272 244.368 17.36C244.592 18.416 244.704 19.76 244.704 21.392V34.448C244.704 35.248 244.784 35.808 244.944 36.128C245.104 36.416 245.376 36.56 245.76 36.56C246.048 36.56 246.32 36.48 246.576 36.32C246.864 36.16 247.168 35.968 247.488 35.744L247.968 36.56C247.296 37.136 246.512 37.584 245.616 37.904C244.752 38.192 243.776 38.336 242.688 38.336C241.504 38.336 240.56 38.176 239.856 37.856C239.152 37.504 238.64 37.04 238.32 36.464C238.032 35.888 237.888 35.216 237.888 34.448C237.12 35.664 236.192 36.624 235.104 37.328C234.016 38 232.688 38.336 231.12 38.336ZM234.528 35.264C235.168 35.264 235.744 35.12 236.256 34.832C236.8 34.512 237.312 34 237.792 33.296V23.456C237.504 23.936 237.104 24.368 236.592 24.752C236.08 25.136 235.536 25.536 234.96 25.952C234.384 26.336 233.824 26.768 233.28 27.248C232.768 27.728 232.352 28.32 232.032 29.024C231.712 29.728 231.552 30.576 231.552 31.568C231.552 32.816 231.824 33.744 232.368 34.352C232.912 34.96 233.632 35.264 234.528 35.264ZM267.196 12.512C268.54 12.512 269.628 12.688 270.46 13.04C271.324 13.36 271.996 13.808 272.476 14.384C272.988 14.992 273.356 15.776 273.58 16.736C273.836 17.696 273.964 18.992 273.964 20.624V33.536C273.964 34.88 274.188 35.792 274.635 36.272C275.116 36.752 275.916 36.992 277.036 36.992V38C276.428 37.968 275.516 37.936 274.3 37.904C273.084 37.84 271.884 37.808 270.7 37.808C269.484 37.808 268.284 37.84 267.1 37.904C265.948 37.936 265.068 37.968 264.46 38V36.992C265.42 36.992 266.092 36.752 266.476 36.272C266.86 35.792 267.052 34.88 267.052 33.536V18.608C267.052 17.808 266.972 17.12 266.812 16.544C266.652 15.936 266.364 15.472 265.948 15.152C265.532 14.8 264.908 14.624 264.076 14.624C263.212 14.624 262.412 14.864 261.676 15.344C260.972 15.824 260.396 16.496 259.948 17.36C259.532 18.192 259.324 19.136 259.324 20.192V33.536C259.324 34.88 259.516 35.792 259.9 36.272C260.316 36.752 260.988 36.992 261.916 36.992V38C261.34 37.968 260.492 37.936 259.372 37.904C258.284 37.84 257.148 37.808 255.964 37.808C254.748 37.808 253.5 37.84 252.22 37.904C250.94 37.936 249.98 37.968 249.34 38V36.992C250.46 36.992 251.244 36.752 251.692 36.272C252.172 35.792 252.412 34.88 252.412 33.536V18.416C252.412 16.976 252.188 15.92 251.74 15.248C251.324 14.544 250.524 14.192 249.34 14.192V13.184C250.364 13.28 251.356 13.328 252.316 13.328C253.66 13.328 254.908 13.28 256.06 13.184C257.244 13.056 258.332 12.88 259.324 12.656V16.976C260.124 15.344 261.212 14.192 262.588 13.52C263.964 12.848 265.5 12.512 267.196 12.512Z" fill="#141414"/>
</svg>
